<mxfile host="app.diagrams.net" modified="2024-06-08T14:30:37.603Z" agent="Mozilla/5.0 (Windows NT 10.0; Win64; x64) AppleWebKit/537.36 (KHTML, like Gecko) Chrome/125.0.0.0 Safari/537.36" etag="FRLYITyiX2vXbD6T93Yu" version="24.5.2" type="device">
  <diagram name="Página-1" id="iYbfRUN9r3IUUWGxQ_X_">
    <mxGraphModel dx="538" dy="468" grid="1" gridSize="10" guides="1" tooltips="1" connect="1" arrows="1" fold="1" page="1" pageScale="1" pageWidth="827" pageHeight="1169" math="0" shadow="0">
      <root>
        <mxCell id="0" />
        <mxCell id="1" parent="0" />
        <mxCell id="pTYXViaG3Pt3oG_N2rWk-2" value="cart.php" style="shape=umlLifeline;perimeter=lifelinePerimeter;whiteSpace=wrap;html=1;container=1;dropTarget=0;collapsible=0;recursiveResize=0;outlineConnect=0;portConstraint=eastwest;newEdgeStyle={&quot;curved&quot;:0,&quot;rounded&quot;:0};fontSize=12;fillColor=#0050ef;strokeColor=#001DBC;fontColor=#ffffff;" vertex="1" parent="1">
          <mxGeometry x="310" y="30" width="100" height="410" as="geometry" />
        </mxCell>
        <mxCell id="pTYXViaG3Pt3oG_N2rWk-3" value="Click btn-send" style="html=1;verticalAlign=bottom;startArrow=oval;startFill=1;endArrow=block;startSize=8;curved=0;rounded=0;" edge="1" parent="1" source="pTYXViaG3Pt3oG_N2rWk-2" target="pTYXViaG3Pt3oG_N2rWk-4">
          <mxGeometry width="60" relative="1" as="geometry">
            <mxPoint x="460" y="150" as="sourcePoint" />
            <mxPoint x="520" y="150" as="targetPoint" />
            <Array as="points">
              <mxPoint x="510" y="100" />
            </Array>
          </mxGeometry>
        </mxCell>
        <mxCell id="pTYXViaG3Pt3oG_N2rWk-4" value="transkbank-pay.php" style="shape=umlLifeline;perimeter=lifelinePerimeter;whiteSpace=wrap;html=1;container=1;dropTarget=0;collapsible=0;recursiveResize=0;outlineConnect=0;portConstraint=eastwest;newEdgeStyle={&quot;curved&quot;:0,&quot;rounded&quot;:0};fontSize=12;fillColor=#0050ef;strokeColor=#001DBC;fontColor=#ffffff;" vertex="1" parent="1">
          <mxGeometry x="560" y="30" width="100" height="410" as="geometry" />
        </mxCell>
        <mxCell id="pTYXViaG3Pt3oG_N2rWk-5" value="webpay3gint.&lt;br&gt;transbank.cl" style="shape=umlLifeline;perimeter=lifelinePerimeter;whiteSpace=wrap;html=1;container=1;dropTarget=0;collapsible=0;recursiveResize=0;outlineConnect=0;portConstraint=eastwest;newEdgeStyle={&quot;curved&quot;:0,&quot;rounded&quot;:0};fontSize=12;fillColor=#d80073;strokeColor=#A50040;fontColor=#ffffff;" vertex="1" parent="1">
          <mxGeometry x="1323" y="30" width="100" height="410" as="geometry" />
        </mxCell>
        <mxCell id="pTYXViaG3Pt3oG_N2rWk-6" value="crear transacción api -&amp;gt; rswebpaytransaction/api/webpay/v1.2/transactions" style="html=1;verticalAlign=bottom;startArrow=oval;startFill=1;endArrow=block;startSize=8;curved=0;rounded=0;" edge="1" parent="1" source="pTYXViaG3Pt3oG_N2rWk-4" target="pTYXViaG3Pt3oG_N2rWk-5">
          <mxGeometry width="60" relative="1" as="geometry">
            <mxPoint x="520" y="170" as="sourcePoint" />
            <mxPoint x="680" y="170" as="targetPoint" />
            <Array as="points">
              <mxPoint x="820" y="120" />
            </Array>
          </mxGeometry>
        </mxCell>
        <mxCell id="pTYXViaG3Pt3oG_N2rWk-7" value="Token transacción + sitio de pago" style="html=1;verticalAlign=bottom;startArrow=oval;startFill=1;endArrow=block;startSize=8;curved=0;rounded=0;" edge="1" parent="1" source="pTYXViaG3Pt3oG_N2rWk-5" target="pTYXViaG3Pt3oG_N2rWk-4">
          <mxGeometry width="60" relative="1" as="geometry">
            <mxPoint x="620" y="190" as="sourcePoint" />
            <mxPoint x="990" y="190" as="targetPoint" />
            <Array as="points">
              <mxPoint x="810" y="150" />
            </Array>
          </mxGeometry>
        </mxCell>
        <mxCell id="pTYXViaG3Pt3oG_N2rWk-8" value="send-pay.php" style="shape=umlLifeline;perimeter=lifelinePerimeter;whiteSpace=wrap;html=1;container=1;dropTarget=0;collapsible=0;recursiveResize=0;outlineConnect=0;portConstraint=eastwest;newEdgeStyle={&quot;curved&quot;:0,&quot;rounded&quot;:0};fontSize=12;fillColor=#0050ef;strokeColor=#001DBC;fontColor=#ffffff;" vertex="1" parent="1">
          <mxGeometry x="870" y="30" width="100" height="410" as="geometry" />
        </mxCell>
        <mxCell id="pTYXViaG3Pt3oG_N2rWk-10" value="Redireccionamiento a formulario con envió automático" style="html=1;verticalAlign=bottom;startArrow=oval;startFill=1;endArrow=block;startSize=8;curved=0;rounded=0;" edge="1" parent="1" source="pTYXViaG3Pt3oG_N2rWk-4" target="pTYXViaG3Pt3oG_N2rWk-8">
          <mxGeometry width="60" relative="1" as="geometry">
            <mxPoint x="650" y="230" as="sourcePoint" />
            <mxPoint x="930" y="230" as="targetPoint" />
            <Array as="points">
              <mxPoint x="860" y="190" />
            </Array>
          </mxGeometry>
        </mxCell>
        <mxCell id="pTYXViaG3Pt3oG_N2rWk-11" value="commit-pay.php" style="shape=umlLifeline;perimeter=lifelinePerimeter;whiteSpace=wrap;html=1;container=1;dropTarget=0;collapsible=0;recursiveResize=0;outlineConnect=0;portConstraint=eastwest;newEdgeStyle={&quot;curved&quot;:0,&quot;rounded&quot;:0};fontSize=12;fillColor=#0050ef;strokeColor=#001DBC;fontColor=#ffffff;" vertex="1" parent="1">
          <mxGeometry x="1050" y="30" width="100" height="410" as="geometry" />
        </mxCell>
        <mxCell id="pTYXViaG3Pt3oG_N2rWk-13" value="Rediccionamiento a sitio de pago" style="html=1;verticalAlign=bottom;startArrow=oval;startFill=1;endArrow=block;startSize=8;curved=0;rounded=0;" edge="1" parent="1" source="pTYXViaG3Pt3oG_N2rWk-8" target="pTYXViaG3Pt3oG_N2rWk-5">
          <mxGeometry width="60" relative="1" as="geometry">
            <mxPoint x="1040" y="230" as="sourcePoint" />
            <mxPoint x="1190" y="230" as="targetPoint" />
            <Array as="points">
              <mxPoint x="1050" y="230" />
            </Array>
          </mxGeometry>
        </mxCell>
        <mxCell id="pTYXViaG3Pt3oG_N2rWk-15" value="testcommerce&lt;br&gt;bank" style="shape=umlLifeline;perimeter=lifelinePerimeter;whiteSpace=wrap;html=1;container=1;dropTarget=0;collapsible=0;recursiveResize=0;outlineConnect=0;portConstraint=eastwest;newEdgeStyle={&quot;curved&quot;:0,&quot;rounded&quot;:0};fontSize=12;fillColor=#d80073;strokeColor=#A50040;fontColor=#ffffff;" vertex="1" parent="1">
          <mxGeometry x="1467" y="30" width="100" height="410" as="geometry" />
        </mxCell>
        <mxCell id="pTYXViaG3Pt3oG_N2rWk-17" value="Pago" style="html=1;verticalAlign=bottom;startArrow=oval;startFill=1;endArrow=block;startSize=8;curved=0;rounded=0;" edge="1" parent="1" source="pTYXViaG3Pt3oG_N2rWk-5" target="pTYXViaG3Pt3oG_N2rWk-15">
          <mxGeometry width="60" relative="1" as="geometry">
            <mxPoint x="1350" y="256" as="sourcePoint" />
            <mxPoint x="1479.5" y="256" as="targetPoint" />
            <Array as="points">
              <mxPoint x="1390" y="256" />
            </Array>
          </mxGeometry>
        </mxCell>
        <mxCell id="pTYXViaG3Pt3oG_N2rWk-18" value="OK pago" style="html=1;verticalAlign=bottom;startArrow=oval;startFill=1;endArrow=block;startSize=8;curved=0;rounded=0;" edge="1" parent="1" source="pTYXViaG3Pt3oG_N2rWk-15" target="pTYXViaG3Pt3oG_N2rWk-5">
          <mxGeometry width="60" relative="1" as="geometry">
            <mxPoint x="1240" y="290" as="sourcePoint" />
            <mxPoint x="1300" y="290" as="targetPoint" />
            <Array as="points">
              <mxPoint x="1400" y="290" />
            </Array>
          </mxGeometry>
        </mxCell>
        <mxCell id="pTYXViaG3Pt3oG_N2rWk-21" value="OK pago" style="html=1;verticalAlign=bottom;startArrow=oval;startFill=1;endArrow=block;startSize=8;curved=0;rounded=0;" edge="1" parent="1" source="pTYXViaG3Pt3oG_N2rWk-5" target="pTYXViaG3Pt3oG_N2rWk-11">
          <mxGeometry width="60" relative="1" as="geometry">
            <mxPoint x="1000" y="280" as="sourcePoint" />
            <mxPoint x="1060" y="280" as="targetPoint" />
            <Array as="points">
              <mxPoint x="1210" y="310" />
            </Array>
          </mxGeometry>
        </mxCell>
        <mxCell id="pTYXViaG3Pt3oG_N2rWk-22" value="" style="shape=umlLifeline;perimeter=lifelinePerimeter;whiteSpace=wrap;html=1;container=1;dropTarget=0;collapsible=0;recursiveResize=0;outlineConnect=0;portConstraint=eastwest;newEdgeStyle={&quot;curved&quot;:0,&quot;rounded&quot;:0};participant=umlActor;fillColor=#60a917;strokeColor=#2D7600;fontColor=#ffffff;" vertex="1" parent="1">
          <mxGeometry x="180" y="30" width="20" height="410" as="geometry" />
        </mxCell>
        <mxCell id="pTYXViaG3Pt3oG_N2rWk-23" value="" style="edgeStyle=elbowEdgeStyle;fontSize=12;html=1;endArrow=blockThin;endFill=1;rounded=0;" edge="1" parent="1" source="pTYXViaG3Pt3oG_N2rWk-22" target="pTYXViaG3Pt3oG_N2rWk-2">
          <mxGeometry width="160" relative="1" as="geometry">
            <mxPoint x="209.5" y="90" as="sourcePoint" />
            <mxPoint x="359.5" y="90" as="targetPoint" />
            <Array as="points">
              <mxPoint x="280" y="90" />
            </Array>
          </mxGeometry>
        </mxCell>
        <mxCell id="pTYXViaG3Pt3oG_N2rWk-24" value="Ir a carro de compra" style="edgeLabel;html=1;align=center;verticalAlign=middle;resizable=0;points=[];" vertex="1" connectable="0" parent="pTYXViaG3Pt3oG_N2rWk-23">
          <mxGeometry x="-0.3" y="-2" relative="1" as="geometry">
            <mxPoint y="-12" as="offset" />
          </mxGeometry>
        </mxCell>
        <mxCell id="pTYXViaG3Pt3oG_N2rWk-25" value="" style="edgeStyle=elbowEdgeStyle;fontSize=12;html=1;endArrow=blockThin;endFill=1;rounded=0;elbow=vertical;" edge="1" parent="1" source="pTYXViaG3Pt3oG_N2rWk-11" target="pTYXViaG3Pt3oG_N2rWk-22">
          <mxGeometry width="160" relative="1" as="geometry">
            <mxPoint x="960" y="330" as="sourcePoint" />
            <mxPoint x="720" y="330" as="targetPoint" />
            <Array as="points">
              <mxPoint x="600" y="410" />
            </Array>
          </mxGeometry>
        </mxCell>
        <mxCell id="pTYXViaG3Pt3oG_N2rWk-26" value="Detalle del Pago" style="edgeLabel;html=1;align=center;verticalAlign=middle;resizable=0;points=[];" vertex="1" connectable="0" parent="pTYXViaG3Pt3oG_N2rWk-25">
          <mxGeometry x="0.0367" y="-2" relative="1" as="geometry">
            <mxPoint x="32" y="-8" as="offset" />
          </mxGeometry>
        </mxCell>
        <mxCell id="pTYXViaG3Pt3oG_N2rWk-28" value="confirmar transacción api -&amp;gt; &lt;br&gt;rswebpaytransaction/api/webpay/v1.2/transactions" style="html=1;verticalAlign=bottom;startArrow=oval;startFill=1;endArrow=block;startSize=8;curved=0;rounded=0;" edge="1" parent="1" target="pTYXViaG3Pt3oG_N2rWk-5">
          <mxGeometry x="0.0037" width="60" relative="1" as="geometry">
            <mxPoint x="1099.5" y="362" as="sourcePoint" />
            <mxPoint x="1339.5" y="362" as="targetPoint" />
            <mxPoint as="offset" />
          </mxGeometry>
        </mxCell>
        <mxCell id="pTYXViaG3Pt3oG_N2rWk-29" value="OK confirmación" style="html=1;verticalAlign=bottom;startArrow=oval;startFill=1;endArrow=block;startSize=8;curved=0;rounded=0;" edge="1" parent="1">
          <mxGeometry width="60" relative="1" as="geometry">
            <mxPoint x="1373" y="400" as="sourcePoint" />
            <mxPoint x="1100" y="400" as="targetPoint" />
            <Array as="points">
              <mxPoint x="1210" y="400" />
            </Array>
          </mxGeometry>
        </mxCell>
      </root>
    </mxGraphModel>
  </diagram>
</mxfile>
